<svg xmlns="http://www.w3.org/2000/svg" width="56.829" height="41"><path d="M13.261 29.634a5.683 5.683 0 105.683 5.683 5.683 5.683 0 00-5.683-5.683zm0 9.472a3.789 3.789 0 113.789-3.789 3.789 3.789 0 01-3.789 3.789zm32.204-9.472a5.683 5.683 0 105.683 5.683 5.683 5.683 0 00-5.683-5.683zm0 9.472a3.789 3.789 0 113.789-3.789 3.789 3.789 0 01-3.789 3.789z"/><path d="M56.682 24.39l-8.525-13.261a.947.947 0 00-.8-.435H36.941a.947.947 0 00-.947.947v23.68a.946.946 0 00.947.947h3.786v-1.9h-2.842V12.584h8.955l8.1 12.592v9.194h-4.736v1.894h5.683a.946.946 0 00.947-.947V24.898a.945.945 0 00-.152-.508z"/><path d="M41.682 22.86v-6.63h7.578v-1.894h-8.525a.947.947 0 00-.947.947v8.519a.946.946 0 00.947.947h14.208v-1.894H41.682zM36.941 3.789H.947A.952.952 0 000 4.744v30.565a.951.951 0 00.947.955h7.578v-1.91H1.894V5.699h34.1v28.655H18v1.91h18.941a.942.942 0 00.67-.279.958.958 0 00.277-.676V4.744a.951.951 0 00-.947-.955z"/><path d="M.947 30.521H6.63v1.894H.947zm18.944 0h16.102v1.894H19.891zm32.205 0h3.789v1.894h-3.789zM3.789 7.631h33.152v1.894H3.789zm8.525 26.739h1.894v1.894h-1.894zm32.204 0h1.894v1.894h-1.894zM3.789 0H17.05v1.894H3.789zM0 0h1.894v1.894H0z"/></svg>