<svg xmlns="http://www.w3.org/2000/svg" width="34" height="34"><g transform="translate(-1270 -45)"><circle cx="17" cy="17" r="17" transform="translate(1270 45)" fill="#fff"/><path d="M1290.779 54h-7.152a4.226 4.226 0 00-4.221 4.221v7.152a4.226 4.226 0 004.221 4.221h7.152a4.226 4.226 0 004.221-4.221v-7.152a4.226 4.226 0 00-4.221-4.221zm3.307 11.373a3.311 3.311 0 01-3.307 3.307h-7.152a3.311 3.311 0 01-3.307-3.307v-7.152a3.311 3.311 0 013.307-3.307h7.152a3.311 3.311 0 013.307 3.307zm0 0"/><path d="M1287.203 57.529a4.264 4.264 0 104.264 4.264 4.269 4.269 0 00-4.264-4.264zm0 7.613a3.35 3.35 0 113.35-3.35 3.353 3.353 0 01-3.35 3.354zm4.365-9.123a1.26 1.26 0 101.26 1.26 1.261 1.261 0 00-1.26-1.26zm0 1.606a.346.346 0 11.346-.346.346.346 0 01-.346.346zm0 0"/></g></svg>