<svg xmlns="http://www.w3.org/2000/svg" width="34" height="34"><g fill="#fff" stroke="#dcdcdc"><circle cx="17" cy="17" r="17" stroke="none"/><circle cx="17" cy="17" r="16.5" fill="none"/></g><path d="M25.064 21.528a2.3 2.3 0 00-.705-1.58 5.649 5.649 0 00-2.242-1.486 2.5 2.5 0 00-2.57.729l-.821.815a12.305 12.305 0 01-2.589-2l-.08-.08a12.307 12.307 0 01-2-2.589l.815-.821a2.5 2.5 0 00.729-2.57 5.649 5.649 0 00-1.484-2.239 2.311 2.311 0 00-3.207-.115l-.017.015-.024.023a4.928 4.928 0 00-1.352 3.609 11.533 11.533 0 003.671 7.638 14.8 14.8 0 001.456 1.268.607.607 0 00.739-.964 13.6 13.6 0 01-1.336-1.162 10.315 10.315 0 01-3.315-6.786 3.752 3.752 0 01.985-2.734 1.092 1.092 0 011.522.055c1.572 1.631 1.459 2.4.764 3.113l-1.122 1.132a.607.607 0 00-.124.675 12.272 12.272 0 002.442 3.313l.08.08a12.27 12.27 0 003.314 2.442.607.607 0 00.675-.124l1.134-1.126c.713-.695 1.482-.809 3.113.764a1.092 1.092 0 01.055 1.522 3.741 3.741 0 01-2.706.985h-.028a7.875 7.875 0 01-3-.709.607.607 0 00-.481 1.115 8.96 8.96 0 003.472.809h.034a4.917 4.917 0 003.575-1.346l.022-.024.016-.018a2.3 2.3 0 00.59-1.629z"/></svg>