<svg xmlns="http://www.w3.org/2000/svg" width="512" height="512" viewBox="0 0 512 512"><path d="M256,0C114.833,0,0,114.833,0,256S114.833,512,256,512,512,397.147,512,256,397.167,0,256,0Zm0,472.341C136.725,472.341,39.659,375.3,39.659,256S136.725,39.659,256,39.659,472.341,136.705,472.341,256,375.3,472.341,256,472.341Z" fill="#fff"/><path d="M355.148,234.386H275.83V155.068a19.83,19.83,0,0,0-39.66,0v79.318H156.852a19.83,19.83,0,0,0,0,39.66H236.17v79.318a19.83,19.83,0,0,0,39.66,0V274.046h79.318a19.83,19.83,0,0,0,0-39.66Z" fill="#fff"/></svg>