<svg xmlns="http://www.w3.org/2000/svg" width="144.914" height="23.402"><path d="M.222 18.281v-2.227l1.583-.363V2.601l-1.8-.363V0h5.573v15.691l1.559.363v2.227zm13.8.246a6.263 6.263 0 01-3.223-.8 5.574 5.574 0 01-2.127-2.2 6.591 6.591 0 01-.75-3.187v-.445a7.9 7.9 0 01.691-3.387 5.416 5.416 0 011.992-2.314 5.563 5.563 0 013.117-.826 5.836 5.836 0 012.906.668 4.322 4.322 0 011.8 1.951 7.181 7.181 0 01.614 3.122v1.992h-7.218l-.012.08a3.189 3.189 0 00.41 1.271 2.346 2.346 0 00.92.879 2.991 2.991 0 001.447.322 6.409 6.409 0 001.658-.211 7.706 7.706 0 001.611-.645l.926 2.3a7.341 7.341 0 01-2.027 1.02 8.461 8.461 0 01-2.73.41zm-2.18-7.828h3.727v-.3a3.773 3.773 0 00-.176-1.225 1.519 1.519 0 00-.562-.779 1.771 1.771 0 00-1.031-.27 1.68 1.68 0 00-1.072.328 2.033 2.033 0 00-.633.9 5.3 5.3 0 00-.3 1.295zm12.17 12.703a6.563 6.563 0 01-1.008-.082 7.591 7.591 0 01-1.032-.239l.445-2.719q.223.047.469.076a3.883 3.883 0 00.457.029 2.526 2.526 0 001.307-.328 1.653 1.653 0 00.756-.984l.2-.621-4.164-10.46-1.629-.234V5.601h7.172v2.238l-1.559.234 1.84 5.367.141.387h.07l2.18-5.789-1.488-.2V5.601h6.6v2.238l-1.465.2-4.792 12.117a6.933 6.933 0 01-.9 1.6 4.1 4.1 0 01-1.436 1.2 4.711 4.711 0 01-2.164.446zm15.773-4.875a4.288 4.288 0 01-3.006-1.031 3.56 3.56 0 01-1.131-2.766 3.572 3.572 0 01.639-2.1 4.15 4.15 0 011.916-1.43 8.525 8.525 0 013.176-.516h1.512V9.84a2.035 2.035 0 00-.486-1.389 1.865 1.865 0 00-1.482-.557 2.91 2.91 0 00-.873.123 2.756 2.756 0 00-.709.334l-.27 1.641h-2.684l-.047-3.4a13.086 13.086 0 012.2-.879 9.077 9.077 0 012.613-.352 6.3 6.3 0 014.014 1.172 4.022 4.022 0 011.485 3.357v4.945q0 .27.006.521a2.809 2.809 0 00.053.486l1.336.211v2.228h-4.512q-.141-.27-.3-.633a3.022 3.022 0 01-.217-.727 4.6 4.6 0 01-1.358 1.173 3.781 3.781 0 01-1.875.433zm1.078-2.719a2.665 2.665 0 001.131-.252 2.41 2.41 0 00.9-.7v-1.919h-1.492a2.258 2.258 0 00-1.494.439 1.387 1.387 0 00-.521 1.105 1.221 1.221 0 00.4.973 1.576 1.576 0 001.076.354zm8.979-3.41V9.504h6.879v2.895zm14.377 6.129a12.958 12.958 0 01-2.713-.27 11.309 11.309 0 01-2.338-.762l-.047-3.773h2.578l.457 1.84a4.094 4.094 0 00.762.281 3.882 3.882 0 001.008.117 2.542 2.542 0 001.488-.322.975.975 0 00.422-.8 1.063 1.063 0 00-.463-.838 4.872 4.872 0 00-1.9-.65 6.536 6.536 0 01-3.3-1.465 3.424 3.424 0 01-1.061-2.578 3.817 3.817 0 01.51-1.939 3.649 3.649 0 011.623-1.43 6.606 6.606 0 012.895-.545 12.943 12.943 0 012.678.264 8.68 8.68 0 012.068.674l.012 3.645h-2.582l-.352-1.652a2.1 2.1 0 00-.674-.316 3.23 3.23 0 00-.861-.105 2.069 2.069 0 00-1.266.322 1 1 0 00-.421.822 1.1 1.1 0 00.164.568 1.514 1.514 0 00.645.516 6.535 6.535 0 001.418.451 8.249 8.249 0 013.346 1.377 3.093 3.093 0 011.084 2.561 3.6 3.6 0 01-1.313 2.911 5.906 5.906 0 01-3.867 1.096zm6.48-.246v-2.227l1.559-.363V2.601l-1.8-.363V0h5.555v7.2a4.212 4.212 0 011.447-1.348 4.009 4.009 0 011.986-.48 3.748 3.748 0 012.988 1.289 5.99 5.99 0 011.108 3.979v5.051l1.559.363v2.227h-6.668v-2.227l1.336-.363v-5.074a2.764 2.764 0 00-.463-1.822 1.715 1.715 0 00-1.354-.521 2.543 2.543 0 00-1.119.24 2.089 2.089 0 00-.826.721v6.456l1.348.363v2.227zm21.4.246a6.3 6.3 0 01-3.287-.814 5.378 5.378 0 01-2.092-2.273 7.491 7.491 0 01-.727-3.381v-.234a7.4 7.4 0 01.727-3.352 5.474 5.474 0 012.086-2.279 6.178 6.178 0 013.27-.826 6.205 6.205 0 013.275.82 5.447 5.447 0 012.08 2.273 7.426 7.426 0 01.727 3.363v.234a7.463 7.463 0 01-.727 3.369 5.439 5.439 0 01-2.08 2.279 6.158 6.158 0 01-3.254.821zm0-2.871a1.926 1.926 0 001.323-.445 2.621 2.621 0 00.744-1.254 6.7 6.7 0 00.24-1.9v-.234a6.541 6.541 0 00-.24-1.869 2.636 2.636 0 00-.75-1.254 1.95 1.95 0 00-1.342-.451 1.932 1.932 0 00-1.332.452 2.6 2.6 0 00-.744 1.254 6.694 6.694 0 00-.234 1.869v.234a6.9 6.9 0 00.234 1.91 2.525 2.525 0 00.744 1.249 2 2 0 001.355.439zm7.488 7.5v-2.238l1.617-.363V8.203l-1.8-.363V5.601h5.3l.164 1.453a3.81 3.81 0 011.289-1.248 3.649 3.649 0 011.852-.439 4.138 4.138 0 012.6.832 5.235 5.235 0 011.664 2.326 9.567 9.567 0 01.58 3.475v.246a8.685 8.685 0 01-.58 3.3 4.883 4.883 0 01-1.676 2.2 4.42 4.42 0 01-2.631.779 3.911 3.911 0 01-1.723-.357 3.552 3.552 0 01-1.277-1.061v3.447l1.535.363v2.239zm7.242-7.5a1.819 1.819 0 001.729-.908 5.14 5.14 0 00.51-2.5v-.246a7.454 7.454 0 00-.229-1.951 2.735 2.735 0 00-.727-1.307 1.829 1.829 0 00-1.307-.469 2.152 2.152 0 00-1.09.275 1.965 1.965 0 00-.762.8v5.355a1.817 1.817 0 00.768.709 2.468 2.468 0 001.107.242zm14.026 2.625v-2.227l1.559-.363V8.203l-1.781-.363V5.601h5.309l.117 1.559.023.3a3.843 3.843 0 011.1-1.582 2.537 2.537 0 011.617-.516 4.9 4.9 0 01.627.047 4.732 4.732 0 01.686.141l-.387 3.457-1.734-.082a2.079 2.079 0 00-1.066.193 2.369 2.369 0 00-.738.662v5.911l1.555.363v2.227zm15.469.246a3.982 3.982 0 01-3.123-1.26 5.7 5.7 0 01-1.131-3.9V8.199l-1.371-.363V5.601h5.143v7.793a2.706 2.706 0 00.428 1.688 1.566 1.566 0 001.307.539 2.686 2.686 0 001.125-.234 2.406 2.406 0 00.879-.68v-6.5l-1.441-.363V5.601h5.215v10.09l1.559.363v2.227h-4.852l-.246-1.523a4.17 4.17 0 01-1.494 1.312 4.289 4.289 0 01-1.998.457z" fill="#fff"/><path d="M115.195 18.281v-3.2h3.747v3.2z" fill="#ff006c"/></svg>