<svg xmlns="http://www.w3.org/2000/svg" width="56.128" height="41" viewBox="0 0 56.128 41"><g transform="translate(0 -69.408)"><g transform="translate(5.436 86.746)"><rect width="9.049" height="1.812"/></g><g transform="translate(5.436 92.211)"><rect width="13.579" height="1.812"/></g><g transform="translate(5.436 97.677)"><rect width="32.594" height="1.812"/></g><g transform="translate(5.436 103.16)"><rect width="5.436" height="1.812"/></g><g transform="translate(14.485 103.16)"><rect width="5.436" height="1.812"/></g><g transform="translate(23.545 103.16)"><rect width="5.436" height="1.812"/></g><g transform="translate(29.876 85.849)"><g transform="translate(0 0)"><path d="M277.648,217.288a3.551,3.551,0,0,0-1.8.5,3.624,3.624,0,1,0,0,6.254,3.551,3.551,0,0,0,1.8.5,3.624,3.624,0,0,0,0-7.248Zm-3.16,5.37a1.683,1.683,0,0,1-.464.066,1.812,1.812,0,1,1,0-3.624,2.137,2.137,0,0,1,.464.066,3.516,3.516,0,0,0,0,3.491Zm3.16.066a1.812,1.812,0,1,1,1.812-1.812A1.82,1.82,0,0,1,277.648,222.724Z" transform="translate(-270.4 -217.288)"/></g></g><g transform="translate(0 69.408)"><g transform="translate(0 0)"><path d="M54.239,81.622,16.253,69.561a2.59,2.59,0,0,0-3.4,1.777l-3.127,9.94h-7A2.737,2.737,0,0,0,0,84.01v23.666a2.723,2.723,0,0,0,2.718,2.732H42.56a2.7,2.7,0,0,0,2.265-1.233,12.633,12.633,0,0,0,1.5.344,2.693,2.693,0,0,0,2.585-1.91l7.093-22.567A2.642,2.642,0,0,0,54.239,81.622ZM13.48,75.359l18.662,5.919H20.109l-7.723-2.454Zm-1.635,5.209,2.265.722H11.623Zm31.622,27.109h-.011a.912.912,0,0,1-.906.911H2.718a.912.912,0,0,1-.906-.911V84.01a.912.912,0,0,1,.906-.911H42.56a.912.912,0,0,1,.906.911v23.666Zm3.723-.611a.913.913,0,0,1-1.138.589l-.784-.244V91.184l6.287,2ZM52.1,91.44l-6.828-2.166v-3.82l7.922,2.51ZM54.283,84.5l-.541,1.732-8.519-2.7a2.718,2.718,0,0,0-2.663-2.243H38.152L14.021,73.626l.541-1.732A.909.909,0,0,1,15.7,71.3l37.986,12.05A.859.859,0,0,1,54.283,84.5Z" transform="translate(0 -69.408)"/></g></g></g></svg>