<svg xmlns="http://www.w3.org/2000/svg" width="31.427" height="37.084" viewBox="0 0 31.427 37.084"><g transform="translate(-15.359)"><g transform="translate(16.616 8.171)"><g transform="translate(0)"><path d="M51.008,47.819l-1.886-3.143a.628.628,0,0,0-.539-.305H24.7a.628.628,0,0,0-.539.305l-1.886,3.143a.629.629,0,0,0,.539.952H50.469a.629.629,0,0,0,.539-.952Zm-27.085-.3,1.132-1.886H48.228l1.131,1.886Z" transform="translate(-22.185 -44.371)" fill="#fff"/></g></g><g transform="translate(15.359 11.314)"><path d="M45.528,62.037a.629.629,0,0,0-.628-.6H17.244a.629.629,0,0,0-.628.6L15.359,86.55a.628.628,0,0,0,.628.661h30.17a.628.628,0,0,0,.628-.661ZM16.649,85.954,17.841,62.7H44.3L45.5,85.954Z" transform="translate(-15.359 -61.441)" fill="#fff"/></g><g transform="translate(33.9 13.828)"><path d="M117.938,75.093a1.886,1.886,0,1,0,1.886,1.886A1.888,1.888,0,0,0,117.938,75.093Zm0,2.514a.628.628,0,1,1,.628-.628A.629.629,0,0,1,117.938,77.607Z" transform="translate(-116.052 -75.093)" fill="#fff"/></g><g transform="translate(24.472 13.828)"><g transform="translate(0)"><path d="M66.738,75.093a1.886,1.886,0,1,0,1.886,1.886A1.888,1.888,0,0,0,66.738,75.093Zm0,2.514a.628.628,0,1,1,.628-.628A.629.629,0,0,1,66.738,77.607Z" transform="translate(-64.852 -75.093)" fill="#fff"/></g></g><g transform="translate(25.729)"><path d="M77.021,0a5.349,5.349,0,0,0-5.343,5.342V8.8a.629.629,0,0,0,.628.628h9.428a.629.629,0,0,0,.628-.628V5.342A5.348,5.348,0,0,0,77.021,0Zm4.085,8.171H72.935V5.342a4.086,4.086,0,0,1,8.171,0V8.171Z" transform="translate(-71.678)" fill="#fff"/></g><g transform="translate(25.729 15.713)"><g transform="translate(0)"><path d="M81.735,85.333h-.048a.629.629,0,0,0-.628.628.622.622,0,0,0,.048.242v3.215a4.086,4.086,0,1,1-8.171,0V85.962a.628.628,0,0,0-1.257,0v3.457a5.342,5.342,0,1,0,10.685,0V85.962A.629.629,0,0,0,81.735,85.333Z" transform="translate(-71.679 -85.333)" fill="#fff"/></g></g></g></svg>