<svg xmlns="http://www.w3.org/2000/svg" width="56.829" height="41" viewBox="0 0 56.829 41"><g transform="translate(0 -72.533)"><g transform="translate(7.578 102.167)"><path d="M73.95,337.067a5.683,5.683,0,1,0,5.683,5.683A5.683,5.683,0,0,0,73.95,337.067Zm0,9.472a3.789,3.789,0,1,1,3.789-3.789,3.789,3.789,0,0,1-3.789,3.789Z" transform="translate(-68.267 -337.067)"/></g><g transform="translate(39.782 102.167)"><path d="M364.083,337.067a5.683,5.683,0,1,0,5.683,5.683,5.683,5.683,0,0,0-5.683-5.683Zm0,9.472a3.789,3.789,0,1,1,3.789-3.789,3.789,3.789,0,0,1-3.789,3.789Z" transform="translate(-358.4 -337.067)"/></g><g transform="translate(35.994 83.227)"><path d="M344.955,180.1l-8.525-13.261a.947.947,0,0,0-.8-.435H325.214a.947.947,0,0,0-.947.947v23.68a.946.946,0,0,0,.947.947H329v-1.9h-2.842V168.294h8.955l8.1,12.592v9.194h-4.736v1.894h5.683a.946.946,0,0,0,.947-.947V180.608A.945.945,0,0,0,344.955,180.1Z" transform="translate(-324.267 -166.404)"/></g><g transform="translate(39.788 86.869)"><path d="M360.3,209.058v-6.63h7.578v-1.894h-8.525a.947.947,0,0,0-.947.947V210a.946.946,0,0,0,.947.947h14.208v-1.894H360.3Z" transform="translate(-358.406 -200.534)"/></g><g transform="translate(0 76.322)"><path d="M36.941,106.667H.947a.952.952,0,0,0-.947.955v30.565a.951.951,0,0,0,.947.955H8.525v-1.91H1.894V108.577h34.1v28.655H18v1.91H36.941a.942.942,0,0,0,.67-.279.958.958,0,0,0,.277-.676V107.622a.951.951,0,0,0-.947-.955Z" transform="translate(0 -106.667)"/></g><g transform="translate(0.947 103.054)"><rect width="5.683" height="1.894"/></g><g transform="translate(19.891 103.054)"><rect width="16.102" height="1.894"/></g><g transform="translate(52.096 103.054)"><rect width="3.789" height="1.894"/></g><g transform="translate(3.789 80.164)"><rect width="33.152" height="1.894"/></g><g transform="translate(12.314 106.903)"><rect width="1.894" height="1.894"/></g><g transform="translate(44.518 106.903)"><rect width="1.894" height="1.894"/></g><g transform="translate(3.789 72.533)"><rect width="13.261" height="1.894"/></g><g transform="translate(0 72.533)"><rect width="1.894" height="1.894"/></g></g></svg>