<svg xmlns="http://www.w3.org/2000/svg" width="56.974" height="41" viewBox="0 0 56.974 41"><g transform="translate(-141 -1517.633)"><g transform="translate(141 1524.446)"><path d="M20.165,4.833,15.442.194A.677.677,0,0,0,14.967,0H3.027A2.53,2.53,0,0,0,.5,2.527V20.591a2.53,2.53,0,0,0,2.527,2.527H17.841a2.53,2.53,0,0,0,2.527-2.527V5.316A.677.677,0,0,0,20.165,4.833Zm-4.52-2.541,2.39,2.347H15.86a.216.216,0,0,1-.215-.215Zm2.2,19.471H3.027a1.174,1.174,0,0,1-1.173-1.173V2.527A1.174,1.174,0,0,1,3.027,1.355H14.29V4.423a1.572,1.572,0,0,0,1.57,1.57h3.153v14.6A1.174,1.174,0,0,1,17.841,21.763Zm0,0" transform="translate(-0.5 0)"/><path d="M108.416,238H98.869a.677.677,0,1,0,0,1.355h9.547a.677.677,0,1,0,0-1.355Zm0,0" transform="translate(-93.78 -227.254)"/><path d="M98.869,299.355h7.785a.677.677,0,1,0,0-1.355H98.869a.677.677,0,1,0,0,1.355Zm0,0" transform="translate(-93.78 -284.545)"/><path d="M107.593,358H98.869a.677.677,0,1,0,0,1.354h8.724a.677.677,0,1,0,0-1.354Zm0,0" transform="translate(-93.78 -341.836)"/></g><g transform="translate(159.553 1517.633)"><path d="M20.165,4.833,15.442.194A.677.677,0,0,0,14.967,0H3.027A2.53,2.53,0,0,0,.5,2.527V20.591a2.53,2.53,0,0,0,2.527,2.527H17.841a2.53,2.53,0,0,0,2.527-2.527V5.316A.677.677,0,0,0,20.165,4.833Zm-4.52-2.541,2.39,2.347H15.86a.216.216,0,0,1-.215-.215Zm2.2,19.471H3.027a1.174,1.174,0,0,1-1.173-1.173V2.527A1.174,1.174,0,0,1,3.027,1.355H14.29V4.423a1.572,1.572,0,0,0,1.57,1.57h3.153v14.6A1.174,1.174,0,0,1,17.841,21.763Zm0,0" transform="translate(-0.5 0)"/><path d="M108.416,238H98.869a.677.677,0,1,0,0,1.355h9.547a.677.677,0,1,0,0-1.355Zm0,0" transform="translate(-93.78 -227.254)"/><path d="M98.869,299.355h7.785a.677.677,0,1,0,0-1.355H98.869a.677.677,0,1,0,0,1.355Zm0,0" transform="translate(-93.78 -284.545)"/><path d="M107.593,358H98.869a.677.677,0,1,0,0,1.354h8.724a.677.677,0,1,0,0-1.354Zm0,0" transform="translate(-93.78 -341.836)"/></g><g transform="translate(178.106 1535.516)"><path d="M20.165,4.833,15.442.194A.677.677,0,0,0,14.967,0H3.027A2.53,2.53,0,0,0,.5,2.527V20.591a2.53,2.53,0,0,0,2.527,2.527H17.841a2.53,2.53,0,0,0,2.527-2.527V5.316A.677.677,0,0,0,20.165,4.833Zm-4.52-2.541,2.39,2.347H15.86a.216.216,0,0,1-.215-.215Zm2.2,19.471H3.027a1.174,1.174,0,0,1-1.173-1.173V2.527A1.174,1.174,0,0,1,3.027,1.355H14.29V4.423a1.572,1.572,0,0,0,1.57,1.57h3.153v14.6A1.174,1.174,0,0,1,17.841,21.763Zm0,0" transform="translate(-0.5 0)"/><path d="M108.416,238H98.869a.677.677,0,1,0,0,1.355h9.547a.677.677,0,1,0,0-1.355Zm0,0" transform="translate(-93.78 -227.254)"/><path d="M98.869,299.355h7.785a.677.677,0,1,0,0-1.355H98.869a.677.677,0,1,0,0,1.355Zm0,0" transform="translate(-93.78 -284.545)"/><path d="M107.593,358H98.869a.677.677,0,1,0,0,1.354h8.724a.677.677,0,1,0,0-1.354Zm0,0" transform="translate(-93.78 -341.836)"/></g></g></svg>