<svg xmlns="http://www.w3.org/2000/svg" width="34" height="34" viewBox="0 0 34 34"><g transform="translate(-1270 -45)"><circle cx="17" cy="17" r="17" transform="translate(1270 45)" fill="#fff"/><g transform="translate(1279.406 54)"><path d="M11.373,0H4.221A4.226,4.226,0,0,0,0,4.221v7.152a4.226,4.226,0,0,0,4.221,4.221h7.152a4.226,4.226,0,0,0,4.221-4.221V4.221A4.226,4.226,0,0,0,11.373,0ZM14.68,11.373a3.311,3.311,0,0,1-3.307,3.307H4.221A3.311,3.311,0,0,1,.914,11.373V4.221A3.311,3.311,0,0,1,4.221.914h7.152A3.311,3.311,0,0,1,14.68,4.221Zm0,0"/><path d="M120.268,116a4.264,4.264,0,1,0,4.264,4.264A4.269,4.269,0,0,0,120.268,116Zm0,7.613a3.35,3.35,0,1,1,3.35-3.35A3.353,3.353,0,0,1,120.268,123.617Zm0,0" transform="translate(-112.471 -112.471)"/><path d="M359.236,66.285a1.26,1.26,0,1,0,1.26,1.26A1.261,1.261,0,0,0,359.236,66.285Zm0,1.606a.346.346,0,1,1,.346-.346A.346.346,0,0,1,359.236,67.891Zm0,0" transform="translate(-347.074 -64.266)"/></g></g></svg>