<svg xmlns="http://www.w3.org/2000/svg" width="34" height="34" viewBox="0 0 34 34"><g transform="translate(-1270 -45)"><g transform="translate(1270 45)" fill="#fff" stroke="#dcdcdc" stroke-width="1"><circle cx="17" cy="17" r="17" stroke="none"/><circle cx="17" cy="17" r="16.5" fill="none"/></g><g transform="translate(1279.517 53.999)"><g transform="translate(0 0.002)"><path d="M15.547,12.529a2.3,2.3,0,0,0-.705-1.58A5.649,5.649,0,0,0,12.6,9.463a2.5,2.5,0,0,0-2.57.729l0,0-.821.815a12.305,12.305,0,0,1-2.589-2l-.08-.08a12.307,12.307,0,0,1-2-2.589l.815-.821,0,0a2.5,2.5,0,0,0,.729-2.57A5.649,5.649,0,0,0,4.6.708,2.311,2.311,0,0,0,1.393.593L1.376.608,1.352.631A4.928,4.928,0,0,0,0,4.24a11.533,11.533,0,0,0,3.671,7.638,14.8,14.8,0,0,0,1.456,1.268.607.607,0,0,0,.739-.964A13.6,13.6,0,0,1,4.53,11.02,10.315,10.315,0,0,1,1.215,4.234,3.752,3.752,0,0,1,2.2,1.5l0,0a1.092,1.092,0,0,1,1.522.055c1.572,1.631,1.459,2.4.764,3.113L3.364,5.8a.607.607,0,0,0-.124.675A12.272,12.272,0,0,0,5.682,9.788l.08.08a12.27,12.27,0,0,0,3.314,2.442.607.607,0,0,0,.675-.124l1.134-1.126c.713-.695,1.482-.809,3.113.764a1.092,1.092,0,0,1,.055,1.522l0,0a3.741,3.741,0,0,1-2.706.985h-.028a7.875,7.875,0,0,1-3-.709.607.607,0,0,0-.481,1.115,8.96,8.96,0,0,0,3.472.809h.034A4.917,4.917,0,0,0,14.919,14.2l.022-.024.016-.018A2.3,2.3,0,0,0,15.547,12.529Z" transform="translate(0 -0.002)"/></g></g></g></svg>