<svg xmlns="http://www.w3.org/2000/svg" width="144.914" height="23.402" viewBox="0 0 144.914 23.402"><g transform="translate(4451.742 3812.281)"><path d="M.48,0V-2.227L2.063-2.59V-15.68l-1.8-.363v-2.238H5.836V-2.59l1.559.363V0Zm13.8.246a6.263,6.263,0,0,1-3.223-.8,5.574,5.574,0,0,1-2.127-2.2A6.591,6.591,0,0,1,8.18-5.941v-.445a7.9,7.9,0,0,1,.691-3.387,5.416,5.416,0,0,1,1.992-2.314,5.563,5.563,0,0,1,3.117-.826,5.836,5.836,0,0,1,2.906.668,4.322,4.322,0,0,1,1.8,1.951A7.181,7.181,0,0,1,19.3-7.172V-5.18H12.082L12.07-5.1a3.189,3.189,0,0,0,.41,1.271,2.346,2.346,0,0,0,.92.879,2.991,2.991,0,0,0,1.447.322,6.409,6.409,0,0,0,1.658-.211,7.706,7.706,0,0,0,1.611-.645l.926,2.3a7.341,7.341,0,0,1-2.027,1.02A8.461,8.461,0,0,1,14.285.246Zm-2.18-7.828h3.727v-.3a3.773,3.773,0,0,0-.176-1.225,1.519,1.519,0,0,0-.562-.779,1.771,1.771,0,0,0-1.031-.27,1.68,1.68,0,0,0-1.072.328,2.033,2.033,0,0,0-.633.9,5.3,5.3,0,0,0-.3,1.295ZM24.27,5.121a6.563,6.563,0,0,1-1.008-.082A7.591,7.591,0,0,1,22.23,4.8l.445-2.719q.223.047.469.076a3.883,3.883,0,0,0,.457.029,2.526,2.526,0,0,0,1.307-.328,1.653,1.653,0,0,0,.756-.984l.2-.621L21.7-10.207l-1.629-.234V-12.68h7.172v2.238l-1.559.234,1.84,5.367.141.387h.07l2.18-5.789-1.488-.2V-12.68h6.6v2.238l-1.465.2L28.77,1.875a6.933,6.933,0,0,1-.9,1.6,4.1,4.1,0,0,1-1.436,1.2A4.711,4.711,0,0,1,24.27,5.121ZM40.043.246A4.288,4.288,0,0,1,37.037-.785a3.56,3.56,0,0,1-1.131-2.766,3.572,3.572,0,0,1,.639-2.1,4.15,4.15,0,0,1,1.916-1.43,8.525,8.525,0,0,1,3.176-.516h1.512v-.844a2.035,2.035,0,0,0-.486-1.389,1.865,1.865,0,0,0-1.482-.557,2.91,2.91,0,0,0-.873.123,2.756,2.756,0,0,0-.709.334l-.27,1.641H36.645l-.047-3.4a13.086,13.086,0,0,1,2.2-.879,9.077,9.077,0,0,1,2.613-.352,6.3,6.3,0,0,1,4.014,1.172A4.022,4.022,0,0,1,46.91-8.391v4.945q0,.27.006.521a2.809,2.809,0,0,0,.053.486l1.336.211V0H43.793q-.141-.27-.3-.633a3.022,3.022,0,0,1-.217-.727A4.6,4.6,0,0,1,41.918-.187,3.781,3.781,0,0,1,40.043.246Zm1.078-2.719a2.665,2.665,0,0,0,1.131-.252,2.41,2.41,0,0,0,.9-.7V-5.344H41.66a2.258,2.258,0,0,0-1.494.439A1.387,1.387,0,0,0,39.645-3.8a1.221,1.221,0,0,0,.4.973A1.576,1.576,0,0,0,41.121-2.473ZM50.1-5.883V-8.777h6.879v2.895ZM64.477.246a12.958,12.958,0,0,1-2.713-.27,11.309,11.309,0,0,1-2.338-.762l-.047-3.773h2.578l.457,1.84a4.094,4.094,0,0,0,.762.281,3.882,3.882,0,0,0,1.008.117,2.542,2.542,0,0,0,1.488-.322.975.975,0,0,0,.422-.8,1.063,1.063,0,0,0-.463-.838,4.872,4.872,0,0,0-1.9-.65,6.536,6.536,0,0,1-3.3-1.465,3.424,3.424,0,0,1-1.061-2.578,3.817,3.817,0,0,1,.51-1.939,3.649,3.649,0,0,1,1.623-1.43,6.606,6.606,0,0,1,2.895-.545,12.943,12.943,0,0,1,2.678.264,8.68,8.68,0,0,1,2.068.674l.012,3.645H66.574l-.352-1.652a2.1,2.1,0,0,0-.674-.316,3.23,3.23,0,0,0-.861-.105,2.069,2.069,0,0,0-1.266.322A1,1,0,0,0,63-9.234a1.1,1.1,0,0,0,.164.568,1.514,1.514,0,0,0,.645.516,6.535,6.535,0,0,0,1.418.451,8.249,8.249,0,0,1,3.346,1.377,3.093,3.093,0,0,1,1.084,2.561A3.6,3.6,0,0,1,68.344-.85,5.906,5.906,0,0,1,64.477.246ZM70.957,0V-2.227l1.559-.363V-15.68l-1.8-.363v-2.238h5.555v7.2a4.212,4.212,0,0,1,1.447-1.348,4.009,4.009,0,0,1,1.986-.48,3.748,3.748,0,0,1,2.988,1.289A5.99,5.99,0,0,1,83.8-7.641V-2.59l1.559.363V0H78.691V-2.227l1.336-.363V-7.664a2.764,2.764,0,0,0-.463-1.822,1.715,1.715,0,0,0-1.354-.521,2.543,2.543,0,0,0-1.119.24,2.089,2.089,0,0,0-.826.721V-2.59l1.348.363V0Zm21.4.246a6.3,6.3,0,0,1-3.287-.814,5.378,5.378,0,0,1-2.092-2.273,7.491,7.491,0,0,1-.727-3.381v-.234a7.4,7.4,0,0,1,.727-3.352,5.474,5.474,0,0,1,2.086-2.279,6.178,6.178,0,0,1,3.27-.826,6.205,6.205,0,0,1,3.275.82,5.447,5.447,0,0,1,2.08,2.273,7.426,7.426,0,0,1,.727,3.363v.234a7.463,7.463,0,0,1-.727,3.369,5.439,5.439,0,0,1-2.08,2.279A6.158,6.158,0,0,1,92.355.246Zm0-2.871A1.926,1.926,0,0,0,93.68-3.07a2.621,2.621,0,0,0,.744-1.254,6.7,6.7,0,0,0,.24-1.9v-.234a6.541,6.541,0,0,0-.24-1.869,2.636,2.636,0,0,0-.75-1.254,1.95,1.95,0,0,0-1.342-.451A1.932,1.932,0,0,0,91-9.58a2.6,2.6,0,0,0-.744,1.254,6.694,6.694,0,0,0-.234,1.869v.234a6.9,6.9,0,0,0,.234,1.91A2.525,2.525,0,0,0,91-3.064,2,2,0,0,0,92.355-2.625Zm7.488,7.5V2.637l1.617-.363V-10.078l-1.8-.363V-12.68h5.3l.164,1.453a3.81,3.81,0,0,1,1.289-1.248,3.649,3.649,0,0,1,1.852-.439,4.138,4.138,0,0,1,2.6.832,5.235,5.235,0,0,1,1.664,2.326,9.567,9.567,0,0,1,.58,3.475v.246a8.685,8.685,0,0,1-.58,3.3,4.883,4.883,0,0,1-1.676,2.2,4.42,4.42,0,0,1-2.631.779,3.911,3.911,0,0,1-1.723-.357,3.552,3.552,0,0,1-1.277-1.061V2.273l1.535.363V4.875Zm7.242-7.5a1.819,1.819,0,0,0,1.729-.908,5.14,5.14,0,0,0,.51-2.5v-.246a7.454,7.454,0,0,0-.229-1.951,2.735,2.735,0,0,0-.727-1.307,1.829,1.829,0,0,0-1.307-.469,2.152,2.152,0,0,0-1.09.275,1.965,1.965,0,0,0-.762.8v5.355a1.817,1.817,0,0,0,.768.709A2.468,2.468,0,0,0,107.086-2.625ZM121.113,0V-2.227l1.559-.363v-7.488l-1.781-.363V-12.68H126.2l.117,1.559.023.3a3.843,3.843,0,0,1,1.1-1.582,2.537,2.537,0,0,1,1.617-.516,4.9,4.9,0,0,1,.627.047,4.732,4.732,0,0,1,.686.141l-.387,3.457-1.734-.082a2.079,2.079,0,0,0-1.066.193,2.369,2.369,0,0,0-.738.662V-2.59L128-2.227V0Zm15.469.246a3.982,3.982,0,0,1-3.123-1.26,5.7,5.7,0,0,1-1.131-3.9v-5.168l-1.371-.363V-12.68H136.1v7.793a2.706,2.706,0,0,0,.428,1.688,1.566,1.566,0,0,0,1.307.539,2.686,2.686,0,0,0,1.125-.234,2.406,2.406,0,0,0,.879-.68v-6.5l-1.441-.363V-12.68h5.215V-2.59l1.559.363V0H140.32l-.246-1.523A4.17,4.17,0,0,1,138.58-.211,4.289,4.289,0,0,1,136.582.246Z" transform="translate(-4452 -3794)" fill="#fff"/><path d="M1.453,0V-3.2H5.2V0Z" transform="translate(-4338 -3794)" fill="#ff006c"/></g></svg>