<svg xmlns="http://www.w3.org/2000/svg" width="56.128" height="41"><path d="M5.436 17.338h9.049v1.812H5.436zm0 5.465h13.579v1.812H5.436zm0 5.466H38.03v1.812H5.436zm0 5.483h5.436v1.812H5.436zm9.049 0h5.436v1.812h-5.436zm9.06 0h5.436v1.812h-5.436zm13.579-17.311a3.551 3.551 0 00-1.8.5 3.624 3.624 0 100 6.254 3.551 3.551 0 001.8.5 3.624 3.624 0 000-7.248zm-3.16 5.37a1.683 1.683 0 01-.464.066 1.812 1.812 0 110-3.624 2.137 2.137 0 01.464.066 3.516 3.516 0 000 3.491zm3.16.066a1.812 1.812 0 111.812-1.812 1.82 1.82 0 01-1.812 1.812z"/><path d="M54.239 12.214L16.253.153a2.59 2.59 0 00-3.4 1.777l-3.127 9.94h-7A2.737 2.737 0 000 14.602v23.666A2.723 2.723 0 002.718 41H42.56a2.7 2.7 0 002.265-1.233 12.633 12.633 0 001.5.344 2.693 2.693 0 002.585-1.91l7.093-22.567a2.642 2.642 0 00-1.764-3.42zM13.48 5.951l18.662 5.919H20.109l-7.723-2.454zm-1.635 5.209l2.265.722h-2.487zm31.622 27.109h-.011a.912.912 0 01-.906.911H2.718a.912.912 0 01-.906-.911V14.602a.912.912 0 01.906-.911H42.56a.912.912 0 01.906.911v23.666zm3.723-.611a.913.913 0 01-1.138.589l-.784-.244V21.776l6.287 2zm4.91-15.626l-6.828-2.166v-3.82l7.922 2.51zm2.183-6.94l-.541 1.732-8.519-2.7a2.718 2.718 0 00-2.663-2.243h-4.408L14.021 4.218l.541-1.732a.909.909 0 011.138-.594l37.986 12.05a.859.859 0 01.597 1.15z"/></svg>