<svg xmlns="http://www.w3.org/2000/svg" width="31.427" height="37.084"><path d="M30.08 11.619l-1.886-3.143a.628.628 0 00-.539-.305H3.772a.628.628 0 00-.539.305l-1.886 3.143a.629.629 0 00.539.952h27.655a.629.629 0 00.539-.952zm-27.085-.3l1.132-1.886H27.3l1.131 1.886z" fill="#191919"/><path d="M30.169 11.91a.629.629 0 00-.628-.6H1.885a.629.629 0 00-.628.6L0 36.423a.628.628 0 00.628.661h30.17a.628.628 0 00.628-.661zM1.29 35.827l1.192-23.254h26.459l1.2 23.254z" fill="#191919"/><path d="M20.427 13.828a1.886 1.886 0 101.886 1.886 1.888 1.888 0 00-1.886-1.886zm0 2.514a.628.628 0 11.628-.628.629.629 0 01-.628.628zm-9.428-2.514a1.886 1.886 0 101.886 1.886 1.888 1.888 0 00-1.886-1.886zm0 2.514a.628.628 0 11.628-.628.629.629 0 01-.628.628zM15.713 0a5.349 5.349 0 00-5.343 5.342V8.8a.629.629 0 00.628.628h9.428a.629.629 0 00.628-.628V5.342A5.348 5.348 0 0015.713 0zm4.085 8.171h-8.171V5.342a4.086 4.086 0 018.171 0v2.829z" fill="#191919"/><path d="M20.426 15.713h-.048a.629.629 0 00-.628.628.622.622 0 00.048.242v3.215a4.086 4.086 0 11-8.171 0v-3.456a.628.628 0 00-1.257 0v3.457a5.343 5.343 0 1010.685 0v-3.457a.629.629 0 00-.629-.629z" fill="#191919"/></svg>