<svg xmlns="http://www.w3.org/2000/svg" width="56.974" height="41"><path d="M19.665 11.646l-4.723-4.639a.677.677 0 00-.475-.194H2.527A2.53 2.53 0 000 9.34v18.064a2.53 2.53 0 002.527 2.527h14.814a2.53 2.53 0 002.527-2.527V12.129a.677.677 0 00-.203-.483zm-4.52-2.541l2.39 2.347H15.36a.216.216 0 01-.215-.215zm2.2 19.471H2.527a1.174 1.174 0 01-1.173-1.173V9.34a1.174 1.174 0 011.173-1.172H13.79v3.068a1.572 1.572 0 001.57 1.57h3.153v14.6a1.174 1.174 0 01-1.172 1.17zm0 0"/><path d="M14.636 17.559H5.089a.677.677 0 100 1.355h9.547a.677.677 0 100-1.355zm-9.547 4.064h7.785a.677.677 0 100-1.355H5.089a.677.677 0 100 1.355zm8.724 1.354H5.089a.677.677 0 100 1.354h8.724a.677.677 0 100-1.354zM38.218 4.833L33.495.194A.677.677 0 0033.02 0H21.08a2.53 2.53 0 00-2.527 2.527v18.064a2.53 2.53 0 002.527 2.527h14.814a2.53 2.53 0 002.527-2.527V5.316a.677.677 0 00-.203-.483zm-4.52-2.541l2.39 2.347h-2.175a.216.216 0 01-.215-.215zm2.2 19.471H21.08a1.174 1.174 0 01-1.173-1.173V2.527a1.174 1.174 0 011.173-1.172h11.263v3.068a1.572 1.572 0 001.57 1.57h3.153v14.6a1.174 1.174 0 01-1.172 1.17zm0 0"/><path d="M33.189 10.746h-9.547a.677.677 0 100 1.355h9.547a.677.677 0 100-1.355zm-9.547 4.064h7.785a.677.677 0 100-1.355h-7.785a.677.677 0 100 1.355zm8.724 1.354h-8.724a.677.677 0 100 1.354h8.724a.677.677 0 100-1.354zm24.405 6.552l-4.723-4.639a.677.677 0 00-.475-.194h-11.94a2.53 2.53 0 00-2.527 2.527v18.064a2.53 2.53 0 002.527 2.527h14.814a2.53 2.53 0 002.527-2.527V23.199a.677.677 0 00-.203-.483zm-4.52-2.541l2.39 2.347h-2.175a.216.216 0 01-.215-.215zm2.2 19.471H39.633a1.174 1.174 0 01-1.173-1.173V20.41a1.174 1.174 0 011.173-1.172h11.263v3.068a1.572 1.572 0 001.57 1.57h3.153v14.6a1.174 1.174 0 01-1.172 1.17zm0 0"/><path d="M51.742 28.629h-9.547a.677.677 0 100 1.355h9.547a.677.677 0 100-1.355zm-9.547 4.064h7.785a.677.677 0 100-1.355h-7.785a.677.677 0 100 1.355zm8.724 1.354h-8.724a.677.677 0 100 1.354h8.724a.677.677 0 100-1.354zm0 0"/></svg>