<svg xmlns="http://www.w3.org/2000/svg" width="34" height="34"><g transform="translate(-1270 -45)"><circle cx="17" cy="17" r="17" transform="translate(1270 45)" fill="#fff"/><path d="M1287.2 68h-1.916a.582.582 0 01-.582-.582v-4.332h-1.12a.582.582 0 01-.582-.579v-1.859a.582.582 0 01.582-.582h1.118v-.929a3.165 3.165 0 01.839-2.268 3.014 3.014 0 012.223-.862h1.464a.583.583 0 01.581.582v1.726a.582.582 0 01-.582.582h-.986c-.3 0-.377.06-.394.079s-.059.117-.059.357v.734h1.365a.591.591 0 01.288.073.584.584 0 01.3.509v1.858a.582.582 0 01-.582.582h-1.37v4.332a.582.582 0 01-.587.579zm-1.8-.7h1.683v-4.528a.389.389 0 01.388-.388h1.564V60.77h-1.563a.389.389 0 01-.388-.388v-1.05a1.2 1.2 0 01.235-.825 1.192 1.192 0 01.921-.317h.86v-1.478l-1.339-.005a2.219 2.219 0 00-2.356 2.43v1.244a.389.389 0 01-.388.388h-1.317v1.614h1.317a.389.389 0 01.388.388zm3.825-10.588zm0 0"/></g></svg>