<svg xmlns="http://www.w3.org/2000/svg" width="34" height="34" viewBox="0 0 34 34"><g transform="translate(-1270 -45)"><circle cx="17" cy="17" r="17" transform="translate(1270 45)" fill="#fff"/><path d="M4.7,11.993H2.784a.582.582,0,0,1-.582-.582V7.079H1.082A.582.582,0,0,1,.5,6.5V4.641a.582.582,0,0,1,.582-.582H2.2V3.13A3.165,3.165,0,0,1,3.039.862,3.014,3.014,0,0,1,5.262,0L6.726,0a.583.583,0,0,1,.581.582V2.308a.582.582,0,0,1-.582.582H5.739c-.3,0-.377.06-.394.079s-.059.117-.059.357V4.06H6.651a.591.591,0,0,1,.288.073.584.584,0,0,1,.3.509V6.5a.582.582,0,0,1-.582.582H5.287v4.332A.582.582,0,0,1,4.7,11.993Zm-1.8-.7H4.583V6.765a.389.389,0,0,1,.388-.388H6.535V4.763H4.972a.389.389,0,0,1-.388-.388V3.325A1.2,1.2,0,0,1,4.819,2.5a1.192,1.192,0,0,1,.921-.317H6.6V.705L5.261.7A2.219,2.219,0,0,0,2.905,3.13V4.374a.389.389,0,0,1-.388.388H1.2V6.376H2.517a.389.389,0,0,1,.388.388ZM6.725.705h0Zm0,0" transform="translate(1282.5 56.007)"/></g></svg>