<svg xmlns="http://www.w3.org/2000/svg" width="75.191" height="78.052" viewBox="0 0 75.191 78.052"><g transform="translate(-0.788 26.546) rotate(-30)"><path d="M27,60c12.224,0,24.587-2.329,24.981-6.782a19.367,19.367,0,0,0-.525-14.252,4.923,4.923,0,0,0-1.465-1.892A25.237,25.237,0,0,0,37.434,16.119,6.386,6.386,0,0,0,39,11.625C39,5.541,33.28,0,27,0S15,5.541,15,11.625a6.39,6.39,0,0,0,1.56,4.487A25.253,25.253,0,0,0,4,37.083a4.921,4.921,0,0,0-1.455,1.883A19.367,19.367,0,0,0,2.02,53.218C2.413,57.671,14.776,60,27,60Zm0-2C12.96,58,4,55.039,4,53s8.96-5,23-5,23,2.961,23,5S41.04,58,27,58ZM27,2a10.206,10.206,0,0,1,10,9.625C37,15.443,34.1,17,27,17c-3.849,0-6.453-.462-8.041-1.488l-.016-.01A4.257,4.257,0,0,1,17,11.625,10.206,10.206,0,0,1,27,2ZM18.279,17.443C20.644,18.741,23.943,19,27,19s6.346-.258,8.711-1.552A23.172,23.172,0,0,1,47.922,35.976C43.46,34.125,35.686,33,27,33S10.53,34.126,6.069,35.98a23.186,23.186,0,0,1,12.21-18.537ZM4.375,39.774a2.9,2.9,0,0,1,1.271-1.391C9.41,36.328,17.792,35,27,35s17.59,1.328,21.353,3.382a2.9,2.9,0,0,1,1.272,1.392,17.552,17.552,0,0,1,1.059,10.814C47.15,47.567,37.027,46,27,46S6.85,47.567,3.316,50.588A17.552,17.552,0,0,1,4.375,39.774Z" fill="#ff006c"/><path d="M14,27a1,1,0,0,0,1-1V25a1,1,0,0,0-2,0v1A1,1,0,0,0,14,27Z" fill="#ff006c"/><path d="M14,29a1,1,0,0,0-1,1v1a1,1,0,0,0,2,0V30A1,1,0,0,0,14,29Z" fill="#ff006c"/><path d="M11,29h1a1,1,0,0,0,0-2H11a1,1,0,0,0,0,2Z" fill="#ff006c"/><path d="M16,29h1a1,1,0,0,0,0-2H16a1,1,0,0,0,0,2Z" fill="#ff006c"/><path d="M19,24a1,1,0,0,0,2,0V23a1,1,0,0,0-2,0Z" fill="#ff006c"/><path d="M20,29a1,1,0,0,0-1,1v1a1,1,0,0,0,2,0V30A1,1,0,0,0,20,29Z" fill="#ff006c"/><path d="M17,22h1a1,1,0,0,0,0-2H17a1,1,0,0,0,0,2Z" fill="#ff006c"/><path d="M22,22h1a1,1,0,0,0,0-2H22a1,1,0,0,0,0,2Z" fill="#ff006c"/><path d="M40,27a1,1,0,0,0,1-1V25a1,1,0,0,0-2,0v1A1,1,0,0,0,40,27Z" fill="#ff006c"/><path d="M40,29a1,1,0,0,0-1,1v1a1,1,0,0,0,2,0V30A1,1,0,0,0,40,29Z" fill="#ff006c"/><path d="M42,29h1a1,1,0,0,0,0-2H42a1,1,0,0,0,0,2Z" fill="#ff006c"/><path d="M37,27a1,1,0,0,0,0,2h1a1,1,0,0,0,0-2Z" fill="#ff006c"/><path d="M33,24a1,1,0,0,0,2,0V23a1,1,0,0,0-2,0Z" fill="#ff006c"/><path d="M34,29a1,1,0,0,0-1,1v1a1,1,0,0,0,2,0V30A1,1,0,0,0,34,29Z" fill="#ff006c"/><path d="M36,22h1a1,1,0,0,0,0-2H36a1,1,0,0,0,0,2Z" fill="#ff006c"/><path d="M31,22h1a1,1,0,0,0,0-2H31a1,1,0,0,0,0,2Z" fill="#ff006c"/><path d="M27,26a1,1,0,0,0,1-1V24a1,1,0,0,0-2,0v1A1,1,0,0,0,27,26Z" fill="#ff006c"/><path d="M27,28a1,1,0,0,0-1,1v1a1,1,0,0,0,2,0V29A1,1,0,0,0,27,28Z" fill="#ff006c"/><path d="M23,27a1,1,0,0,0,1,1h1a1,1,0,0,0,0-2H24A1,1,0,0,0,23,27Z" fill="#ff006c"/><path d="M29,28h1a1,1,0,0,0,0-2H29a1,1,0,0,0,0,2Z" fill="#ff006c"/><path d="M7,47a1,1,0,0,0,1-1,16.283,16.283,0,0,1,.924-5.618,1,1,0,0,0-1.847-.767A17.933,17.933,0,0,0,6,46a1,1,0,0,0,1,1Z" fill="#ff006c"/><path d="M13,45a1,1,0,0,0,1-1,11.325,11.325,0,0,1,.9-4.556,1,1,0,1,0-1.791-.891A13.128,13.128,0,0,0,12,44a1,1,0,0,0,1,1Z" fill="#ff006c"/><path d="M20,44a1,1,0,0,0,1-1,11.325,11.325,0,0,1,.9-4.556,1,1,0,0,0-1.791-.891A13.128,13.128,0,0,0,19,43,1,1,0,0,0,20,44Z" fill="#ff006c"/><path d="M46,46a1,1,0,0,0,2,0,17.933,17.933,0,0,0-1.077-6.385,1,1,0,0,0-1.847.767A16.283,16.283,0,0,1,46,46Z" fill="#ff006c"/><path d="M40,44a1,1,0,0,0,2,0,13.128,13.128,0,0,0-1.1-5.447,1,1,0,0,0-1.79.894A11.113,11.113,0,0,1,40,44Z" fill="#ff006c"/><path d="M33,43a1,1,0,0,0,2,0,13.128,13.128,0,0,0-1.1-5.447,1,1,0,1,0-1.79.894A11.113,11.113,0,0,1,33,43Z" fill="#ff006c"/><path d="M27,44a1,1,0,0,0,1-1V38a1,1,0,0,0-2,0v5A1,1,0,0,0,27,44Z" fill="#ff006c"/></g></svg>