<svg xmlns="http://www.w3.org/2000/svg" width="23.37" height="28.011" viewBox="0 0 23.37 28.011"><path d="M93.778,13.493a6.528,6.528,0,0,0,4.77-1.977,6.529,6.529,0,0,0,1.976-4.77,6.529,6.529,0,0,0-1.977-4.77,6.745,6.745,0,0,0-9.54,0,6.528,6.528,0,0,0-1.977,4.77,6.528,6.528,0,0,0,1.977,4.77A6.53,6.53,0,0,0,93.778,13.493ZM90.169,3.137a5.1,5.1,0,0,1,7.219,0,4.878,4.878,0,0,1,1.5,3.609,4.877,4.877,0,0,1-1.5,3.61,5.1,5.1,0,0,1-7.219,0,4.876,4.876,0,0,1-1.5-3.61A4.877,4.877,0,0,1,90.169,3.137Zm0,0" transform="translate(-82.27 0)" fill="#fff"/><path d="M23.313,255.325a16.665,16.665,0,0,0-.227-1.77,13.945,13.945,0,0,0-.435-1.78,8.791,8.791,0,0,0-.732-1.66,6.256,6.256,0,0,0-1.1-1.438,4.863,4.863,0,0,0-1.585-1,5.476,5.476,0,0,0-2.023-.366,2.053,2.053,0,0,0-1.1.465c-.329.214-.713.462-1.142.736a6.545,6.545,0,0,1-1.478.651,5.739,5.739,0,0,1-3.615,0,6.525,6.525,0,0,1-1.477-.651c-.425-.272-.81-.52-1.143-.737a2.051,2.051,0,0,0-1.1-.465,5.469,5.469,0,0,0-2.023.367,4.86,4.86,0,0,0-1.585,1,6.258,6.258,0,0,0-1.1,1.437,8.807,8.807,0,0,0-.732,1.66,13.979,13.979,0,0,0-.435,1.779,16.55,16.55,0,0,0-.227,1.771C.019,255.861,0,256.417,0,256.98A4.651,4.651,0,0,0,1.381,260.5a4.972,4.972,0,0,0,3.56,1.3H18.429a4.973,4.973,0,0,0,3.559-1.3,4.649,4.649,0,0,0,1.382-3.519C23.369,256.415,23.35,255.858,23.313,255.325Zm-2.457,3.984a3.348,3.348,0,0,1-2.428.846H4.941a3.348,3.348,0,0,1-2.428-.846,3.037,3.037,0,0,1-.872-2.33c0-.525.017-1.043.052-1.541a14.929,14.929,0,0,1,.205-1.594,12.329,12.329,0,0,1,.383-1.569,7.17,7.17,0,0,1,.6-1.35,4.638,4.638,0,0,1,.811-1.062,3.227,3.227,0,0,1,1.054-.655,3.778,3.778,0,0,1,1.293-.249c.057.031.16.089.326.2.337.22.726.471,1.156.745a8.133,8.133,0,0,0,1.855.829,7.38,7.38,0,0,0,4.625,0,8.143,8.143,0,0,0,1.856-.83c.44-.281.818-.525,1.156-.745.166-.108.268-.166.326-.2a3.78,3.78,0,0,1,1.293.249,3.232,3.232,0,0,1,1.054.655,4.626,4.626,0,0,1,.811,1.063,7.147,7.147,0,0,1,.6,1.349,12.3,12.3,0,0,1,.383,1.569,15.053,15.053,0,0,1,.205,1.594h0c.035.5.052,1.014.053,1.54A3.037,3.037,0,0,1,20.856,259.309Zm0,0" transform="translate(0 -233.786)" fill="#fff"/></svg>