<svg xmlns="http://www.w3.org/2000/svg" xmlns:xlink="http://www.w3.org/1999/xlink" width="223" height="125" viewBox="0 0 223 125"><defs><clipPath id="a"><rect width="223" height="125" transform="translate(14491 -2986)" fill="none"/></clipPath></defs><g transform="translate(-14491 2986)"><g clip-path="url(#a)"><g transform="translate(14506 -3020)"><g transform="translate(15.267 70.066)"><path d="M81.55,103.27H68.314l8.273-50.842H89.825ZM57.178,52.427,44.558,87.4l-1.493-7.53v0L38.612,57.005s-.539-4.578-6.279-4.578H11.471l-.245.861A49.519,49.519,0,0,1,25.072,59.1l11.5,44.172H50.364l21.06-50.844H57.178ZM161.293,103.27h12.154l-10.6-50.844H152.209c-4.914,0-6.111,3.789-6.111,3.789L126.357,103.27h13.8l2.759-7.552h16.827l1.55,7.552ZM146.727,85.285l6.955-19.026L157.6,85.285ZM127.392,64.654l1.889-10.918a38.207,38.207,0,0,0-11.905-2.217c-6.569,0-22.168,2.871-22.168,16.831,0,13.135,18.308,13.3,18.308,20.2S97.094,94.211,91.674,89.86l-1.968,11.416a37.1,37.1,0,0,0,14.941,2.871c9.033,0,22.66-4.677,22.66-17.407,0-13.219-18.473-14.45-18.473-20.2s12.893-5.01,18.557-1.889Z" transform="translate(-11.226 -51.519)" fill="#2566af"/></g><path d="M43.066,79.628,38.612,56.764s-.539-4.578-6.279-4.578H11.471l-.245.861a51.286,51.286,0,0,1,19.645,9.864A39.646,39.646,0,0,1,43.066,79.628Z" transform="translate(4.041 18.787)" fill="#e6a540"/><path d="M0,0H192.756V192.756H0Z" fill="none"/></g></g></g></svg>